<svg width="19" height="21" fill="none" xmlns="http://www.w3.org/2000/svg"><g clip-path="url(#clip0)" fill="#000"><path d="M0 11.746v-.809c0-.026.013-.052.013-.078.014-.209.027-.418.054-.64.12-.887.388-1.735.857-2.506.736-1.213 1.78-2.049 3.172-2.466a4.866 4.866 0 011.74-.21c.415.04.803.131 1.204.262.522.17 1.044.352 1.566.522.389.13.777.157 1.165.013.495-.183.99-.34 1.499-.509a6.702 6.702 0 011.673-.352c.522-.04 1.044.039 1.553.143 1.044.222 1.954.692 2.677 1.462.147.157.267.313.401.47-.147.104-.294.183-.428.274-.616.43-1.138.953-1.486 1.618-.535 1.031-.629 2.115-.361 3.211.375 1.54 1.392 2.558 2.85 3.21v.04l-.04.078c-.16.392-.307.783-.481 1.162-.429.94-1.018 1.788-1.673 2.584-.335.418-.71.822-1.151 1.148-.442.314-.924.523-1.473.575-.428.026-.843-.052-1.245-.17-.374-.117-.736-.26-1.11-.391-.51-.17-1.045-.274-1.593-.248-.562.013-1.098.143-1.62.326-.415.143-.83.287-1.245.418-.16.052-.334.065-.495.104h-.468c-.014 0-.014-.013-.027-.013-.455-.052-.857-.248-1.218-.51-.442-.312-.817-.704-1.165-1.121a13.172 13.172 0 01-2.556-4.53 12.681 12.681 0 01-.562-2.727c0-.105-.014-.222-.027-.34z"/><path d="M13.585 0c0 .235.014.47 0 .705-.026.626-.214 1.2-.522 1.749a5.507 5.507 0 01-2.047 2.075 3.509 3.509 0 01-1.807.457c-.08 0-.12-.013-.134-.118a3.904 3.904 0 01.401-2.023C10.2 1.37 11.377.47 12.983.078c.16-.039.308-.052.469-.078h.133z"/></g><defs><clipPath id="clip0"><path fill="#fff" d="M0 0h18.136v21H0z"/></clipPath></defs></svg>