<svg width="85" height="99" fill="none" xmlns="http://www.w3.org/2000/svg"><g clip-path="url(#clip0)"><path d="M0 95.889V45.157c0-2.126 1.743-3.85 3.89-3.85h59.385v35.638L0 95.89z" fill="#4865C8"/><path d="M4.606 18.204v61.514h62.871V27.752h-9.275c-2.334 0-4.202-1.879-4.202-4.158v-8.378H7.625c-1.68 0-3.019 1.355-3.019 2.987z" fill="#E8EDFF"/><path d="M3.828 99H68.94a3.873 3.873 0 003.673-2.68l12.2-40.074c.747-2.434-1.09-4.867-3.672-4.867H48.77a3.85 3.85 0 00-3.517 2.28L43.513 57.6c-.623 1.386-2.024 2.31-3.549 2.28l-26.922-.278a3.796 3.796 0 00-3.704 2.742C6.256 72.94 3.206 83.568.124 94.164-.56 96.597 1.276 99 3.828 99z" fill="#5E81F4"/><path d="M54 15.217v9.487c0 1.663 1.37 3.018 3.05 3.018h10.427L54 15.217zM58.918 34.068H13.321a.7.7 0 01-.716-.709.7.7 0 01.716-.708h45.597a.7.7 0 01.716.708c.031.4-.311.709-.716.709zM58.918 41.306H13.321a.7.7 0 01-.716-.708.7.7 0 01.716-.709h45.597a.7.7 0 01.716.709c.031.4-.311.709-.716.709zM42.578 48.175H13.197a.588.588 0 01-.592-.585v-.277c0-.308.25-.585.592-.585h29.38c.312 0 .592.246.592.585v.277c0 .34-.28.585-.591.585z" fill="#BFC9ED"/><rect x="63" y="1" width="2" height="14" rx="1" fill="#BFC9ED"/><rect x="78.673" y="4" width="2" height="14" rx="1" transform="rotate(43.703 78.673 4)" fill="#BFC9ED"/><rect x="83" y="20" width="2" height="14" rx="1" transform="rotate(90 83 20)" fill="#BFC9ED"/></g><defs><clipPath id="clip0"><path fill="#fff" d="M0 0h85v99H0z"/></clipPath></defs></svg>