<svg width="312" height="204" fill="none" xmlns="http://www.w3.org/2000/svg"><g clip-path="url(#clip0)"><rect width="312" height="204" rx="8" fill="#F5F5FB"/><mask id="a" maskUnits="userSpaceOnUse" x="0" y="0" width="312" height="204"><rect width="312" height="204" rx="8" fill="#F5F5FB"/></mask><g mask="url(#a)" stroke="#5E81F4"><circle cx="298.5" cy="26.5" r="44.5" stroke-width="28"/><circle cx="13.5" cy="222.5" r="63.5" stroke-width="36"/></g><path d="M236.557 68.273c-7.872.462-10.953 8.662-11.866 10.51-.913 1.848-1.027 3.927-1.255 6.005-.228 2.08-.456 4.158-1.483 6.006-1.711 2.772-5.362 4.273-6.389 7.391-1.141 3.581 1.711 7.276 1.027 10.972-.457 1.963-1.826 3.58-2.282 5.544-.571 1.963 0 4.157 1.027 6.005 2.624 4.504 7.872 6.699 13.006 6.93 5.134.231 10.155-1.386 14.947-2.888M271.013 78.552c-.798 1.732 0 3.696 1.141 5.081 1.255 1.386 2.853 2.31 4.222 3.465 1.369 1.155 2.738 2.656 2.852 4.504.114 1.733-.684 3.35-.456 5.082.57 4.273 7.416 5.659 7.758 9.932.228 2.887-2.738 5.544-1.825 8.316.342 1.039 1.141 1.847 1.711 2.887 1.94 3.234.571 7.738-2.168 10.279-2.852 2.54-6.731 3.464-10.382 3.58-3.195.115-6.732-.347-8.557-3.003-1.712-2.31-1.369-5.544-1.027-8.431 1.597-13.512 1.369-27.256 1.027-40.884" fill="#263238"/><path d="M238.611 141.148c.114-7.16 0-14.552 0-14.552s-9.014-1.617-10.725-13.628c-1.712-11.433 1.141-36.033 1.141-36.033 13.121-5.197 27.839-3.234 36.966 7.507l-1.369 57.745c-.114 6.699-6.047 11.896-13.121 11.665-7.188-.231-12.892-5.89-12.892-12.704z" fill="#FFBE9D"/><path d="M231.423 95.76c0 .808.57 1.501 1.483 1.617.799 0 1.483-.578 1.597-1.386 0-.808-.57-1.501-1.483-1.617-.799 0-1.483.578-1.597 1.386z" fill="#263238"/><path d="M229.027 94.605c.228.231 1.369-.693 2.966-.577 3.081.462 2.967.924 2.967.693.114-.116-.114-.462-.571-.809-.456-.346-1.369-.808-2.396-.808s-1.825.346-2.396.693c-.456.346-.684.693-.57.808zM248.195 96.338c0 .808.57 1.5 1.483 1.616.798 0 1.483-.577 1.597-1.385 0-.809-.57-1.502-1.483-1.617a1.392 1.392 0 00-1.597 1.386z" fill="#263238"/><path d="M246.027 95.183c.228.23 1.369-.693 2.966-.578 1.598 0 2.853.809 2.967.693.114-.115-.114-.462-.571-.808-.456-.347-1.369-.809-2.396-.809s-1.825.347-2.396.693c-.456.347-.684.693-.57.809zM239.98 107.078c0-.115-1.027-.231-2.624-.462-.457 0-.799-.115-.913-.462-.114-.346.114-.808.342-1.27.457-1.04.799-2.079 1.255-3.234 1.712-4.504 3.081-8.315 2.853-8.315-.229-.116-1.712 3.58-3.537 8.084-.457 1.155-.799 2.194-1.255 3.234-.114.462-.457 1.039-.229 1.617.115.346.457.577.685.577.228.116.456.116.685.116 1.711.115 2.738.115 2.738.115z" fill="#263238"/><path d="M238.611 126.481s7.986.577 15.859-4.043c0 0-3.879 8.2-15.745 6.93l-.114-2.887zM240.664 111.005c.571-.809 1.598-1.155 2.625-1.04.684.116 1.369.462 1.825 1.04.456.577.456 1.386.114 1.963-.456.578-1.369.809-2.168.578-.798-.231-1.483-.809-2.053-1.271-.229-.115-.343-.346-.457-.462-.114-.346-.114-.577.114-.808z" fill="#EB996E"/><path d="M244.772 108.233c-.228 0-.343 1.732-1.826 3.003-1.483 1.27-3.423 1.039-3.423 1.27 0 .116.457.347 1.255.347.799 0 1.94-.231 2.853-.924.913-.809 1.369-1.848 1.369-2.541.114-.693-.114-1.155-.228-1.155zM260.859 75.896c-4.336 6.236-15.745 12.704-23.96 14.09.913-1.27 5.933-4.39 6.96-5.66-3.765 2.772-9.013 6.583-13.919 6.814-.571 0-1.255 0-1.712-.23-.684-.347-.799-1.156-.913-1.848-.342-2.888-.114-7.97.343-10.857.456-2.887 1.825-5.774 4.221-7.737 3.195-2.426 7.644-3.119 11.98-3.234 3.537-.116 7.302.115 10.497 1.386 3.308 1.27 6.047 3.926 6.503 6.93" fill="#263238"/><path d="M273.295 103.844c.571-3.118 1.027-6.005 1.141-7.968.342-6.122-1.369-28.873-22.362-27.14l-.913 6.467s-3.195 22.174 10.383 22.29c0 0 .798 6.582 6.959 13.05-.114 0 3.423-.116 4.792-6.699z" fill="#263238"/><path d="M261.544 97.492c1.255-.23 2.624-.23 3.765.347 1.141.462 2.282 1.386 2.738 2.541.456 1.155.456 2.54 0 3.811-.456 1.27-1.255 2.31-2.168 3.234-.684.693-1.369 1.27-2.282 1.501-.913.231-1.939.115-2.624-.462" fill="#FFBE9D"/><path d="M262.114 105.346c-.114 0 .342.808 1.597.577.571-.115 1.141-.577 1.484-1.27.342-.578.57-1.271.684-2.079.114-.808-.114-1.617-.456-2.31-.457-.577-1.027-1.04-1.598-1.04-1.141 0-1.597.809-1.483.809.114.116.571-.346 1.369-.115.799.115 1.484 1.155 1.255 2.541-.114 1.27-.684 2.54-1.369 2.771-.913.347-1.369 0-1.483.116z" fill="#EB996E"/><path d="M263.825 73.586c1.598.924 3.537 1.155 5.363.693 1.825-.462 3.423-1.733 4.335-3.35.571-1.039.913-2.31.685-3.464-.456-1.617-1.94-2.657-3.537-3.118-2.282-.578-4.906 0-6.617 1.616-1.712 1.617-2.51 4.274-1.712 6.583.799 2.31 3.081 3.927 5.477 3.811M265.765 108.002c-1.141.809-2.396 1.732-3.309 2.887-.912 1.155-1.597 2.541-1.369 4.043.114.808.342 1.616.228 2.425-.114 1.155-1.026 1.963-1.711 2.887-1.483 2.425-.913 5.89 1.027 7.969 1.939 2.079 4.906 3.118 7.758 3.234 1.712 0 3.423-.231 4.792-1.155 1.94-1.386 2.738-4.042 2.738-6.468" fill="#263238"/><path d="M267.134 78.32c.114 0-.342.925-1.255 2.195-.913 1.27-2.282 2.888-3.993 4.504-1.826 1.502-3.651 2.657-5.02 3.35-1.369.692-2.282.924-2.282.924-.114-.232 3.423-1.617 6.96-4.736 3.422-3.118 5.476-6.352 5.59-6.236zM269.302 78.205c.114 0 0 1.155-.342 2.888-.457 1.732-1.255 4.157-2.624 6.583-1.484 2.425-3.081 4.273-4.45 5.428-1.369 1.155-2.282 1.732-2.396 1.732-.114-.115 3.537-2.772 6.389-7.507 2.738-4.62 3.195-9.24 3.423-9.124zM223.664 87.791c.229 0 .457 1.963 1.027 4.389.685 2.31 1.483 4.157 1.369 4.273-.114.115-1.255-1.617-1.939-4.042-.571-2.541-.571-4.62-.457-4.62zM274.094 128.675c0-.116.57.577 1.711.577.571 0 1.369-.115 2.054-.693.685-.461 1.255-1.27 1.483-2.309.228-1.04.228-2.195 0-3.465s-.684-2.541-1.141-3.927c-.456-1.386-.798-3.003-.456-4.619.228-1.733 1.369-3.119 1.825-4.62.571-1.501.343-3.234-.342-4.504-.684-1.502-1.825-2.426-3.195-3.003a10.027 10.027 0 01-1.939-.924c-.571-.346-1.255-.808-1.597-1.386-.685-1.27-.685-2.54-.685-3.58 0-1.155.114-2.079-.114-2.887-.228-.809-.456-1.502-.913-1.964-.798-.923-1.597-.924-1.483-.924h.456c.343.116.799.347 1.255.809.457.462.799 1.155 1.027 2.079.228.924.228 1.963.228 3.003 0 1.039 0 2.31.685 3.349.685 1.039 1.94 1.501 3.309 2.079 1.369.462 2.738 1.616 3.422 3.118.685 1.501 1.027 3.349.343 4.966-.571 1.617-1.598 3.003-1.826 4.504-.228 1.501.114 3.003.457 4.389.456 1.386.912 2.772 1.141 4.042.228 1.27.228 2.541-.115 3.696-.342 1.155-.912 1.963-1.711 2.54-.799.462-1.597.693-2.168.578-.684 0-1.141-.231-1.369-.462-.342-.347-.342-.462-.342-.462zM265.765 127.867s.114.346.685.577c.456.231 1.597.231 2.167-.577.571-.924.571-2.31-.228-3.581-.684-1.27-1.939-2.541-2.282-4.504-.228-.924 0-1.963.685-2.656.57-.693 1.255-1.155 1.597-1.733.913-1.154.913-2.54.799-3.695-.114-1.155-.456-1.964-.685-2.657-.228-.577-.342-.923-.228-.923 0 0 .228.346.457.923.228.578.684 1.502.798 2.657.228 1.155.228 2.772-.798 4.042-.457.693-1.141 1.155-1.598 1.732-.456.578-.684 1.386-.456 2.195.228 1.617 1.483 2.887 2.168 4.388.684 1.386.798 3.119 0 4.158-.343.577-1.027.808-1.484.808-.456 0-.912 0-1.255-.231-.342-.462-.342-.923-.342-.923zM221.04 124.864l-.913-.924c-.57-.693-1.369-1.617-1.939-3.003-.342-.693-.456-1.617-.456-2.541 0-.924.342-1.963 1.026-2.772.685-.808 1.712-1.27 2.396-2.078.685-.809.685-1.848.457-3.003-.228-1.04-.799-2.079-1.255-3.003-.457-.924-.913-1.963-1.141-3.003-.228-1.039 0-2.194.57-2.887.571-.808 1.141-1.27 1.712-1.848 1.141-.924 1.825-1.963 1.939-2.772.114-.808-.114-1.27 0-1.27 0 0 .114.115.228.346.114.232.114.578.114 1.04-.114.924-.798 2.079-1.939 3.118-.571.578-1.141 1.04-1.597 1.848-.457.693-.685 1.617-.457 2.541.114.924.571 1.848 1.141 2.887.457.924 1.027 1.963 1.369 3.234.228 1.155.228 2.541-.57 3.465-.799.924-1.826 1.27-2.396 2.078-.571.693-.913 1.617-.913 2.426 0 .808.114 1.617.342 2.31.571 1.385 1.255 2.309 1.826 3.002.228.347.57.809.456.809z" fill="#455A64"/><path d="M268.617 75.087c-.114.116-.912-1.732-2.738-3.003-1.825-1.386-3.651-1.732-3.651-1.847 0-.116 2.054-.116 3.993 1.385 1.94 1.386 2.625 3.465 2.396 3.465z" fill="#E8505B"/><path d="M270.329 64c.114 0 .456.462.798 1.27.343.924.457 2.195.115 3.696-.343 1.386-1.255 2.54-1.94 3.118-.685.578-1.255.809-1.255.693 0-.115.456-.346 1.027-1.04.57-.692 1.255-1.616 1.711-2.886.342-1.27.228-2.541.114-3.35-.456-.924-.684-1.501-.57-1.501z" fill="#455A64"/><path d="M185.5 204l15.574-36.675 19.624 12.473L207 204h-21.5z" fill="#EB996E"/><path d="M217.732 141.379c9.127-4.851 20.879-6.237 20.879-6.237 3.423 6.93 14.261 7.854 20.765 3.119l5.476-3.812s.799 0 2.282.116c12.893 1.155 23.504 10.856 26.128 23.791.912 4.62 1.711 10.048 1.369 15.014-.685 12.588-13.577 13.743-13.577 13.743S280.799 192.952 280 203c-7 0-4.879-.618-11.725 2.5-5.02 2.31-.463-2.5-17.275-2.5h-31c1.94-12.011-5.121-15.194-5.349-15.887v-.231l-12.779-11.549-7.302-6.121c.115 0 15.974-23.906 23.162-27.833z" fill="#5E81F4"/><path d="M233.591 149.117c0 .115-1.141-.924-3.195-.924a5.487 5.487 0 00-3.309 1.155c-.456.462-.913 1.039-1.483 1.617-.456.577-1.141 1.27-2.054 1.386-.912.231-1.825-.231-2.396-.693-.684-.462-1.255-.924-1.825-1.271-1.141-.693-2.396-.577-3.309-.346-.913.346-1.597.924-1.939 1.386-.343.462-.457.808-.571.693 0 0 0-.347.342-.924.343-.462.913-1.155 1.94-1.617 1.027-.462 2.51-.578 3.765.231.685.346 1.255.808 1.826 1.155.57.346 1.255.693 1.939.577.685-.115 1.255-.693 1.712-1.155.456-.577.912-1.155 1.597-1.617 1.141-.924 2.51-1.155 3.651-1.155s1.939.347 2.396.693c.684.578.913.809.913.809zM246.597 166.325c-.114.116-.798-1.155-2.738-1.848a4.96 4.96 0 00-3.423 0c-.57.231-1.255.693-1.825 1.04-.685.346-1.483.808-2.396.693-.913-.116-1.598-.809-2.054-1.386-.456-.578-.913-1.271-1.369-1.733-.799-1.039-2.054-1.386-3.081-1.386-1.026 0-1.825.347-2.281.693-.457.347-.685.578-.799.578 0 0 .114-.347.57-.693a4.719 4.719 0 012.396-.924c1.027-.116 2.51.231 3.537 1.386l1.369 1.732c.457.578 1.027 1.04 1.712 1.155.684.116 1.369-.231 2.053-.577.685-.347 1.255-.809 1.94-1.04 1.369-.462 2.738-.346 3.765.116a4.342 4.342 0 012.054 1.501c.456.347.57.693.57.693zM275.463 141.148c0 .115-1.255-.577-3.309-.231-1.026.231-2.167.808-2.966 1.848-.456.462-.685 1.155-1.141 1.848a4.386 4.386 0 01-1.711 1.848c-.913.346-1.826.115-2.51-.116-.685-.231-1.37-.577-2.054-.808-1.255-.462-2.51-.116-3.309.462-.913.577-1.369 1.27-1.597 1.732a7.07 7.07 0 00-.343.808s.001-.346.115-.924a4.058 4.058 0 011.597-1.963c.913-.577 2.282-1.039 3.765-.577.685.231 1.369.577 2.054.808.684.231 1.369.347 2.053.116.685-.231 1.141-.924 1.484-1.502.342-.693.684-1.386 1.141-1.963.912-1.155 2.281-1.732 3.308-1.848 1.027-.231 1.94 0 2.51.116.685.115.913.23.913.346zM262.114 160.088c-.114.116-.57-.923-2.054-1.501-.684-.231-1.711-.346-2.624-.115-.456.115-.913.462-1.483.693-.57.231-1.141.577-1.94.462-.684-.116-1.255-.693-1.597-1.155-.342-.462-.684-1.04-.913-1.386-.57-.809-1.483-1.155-2.282-1.155-1.597 0-2.281.808-2.395.808 0 0 .114-.231.456-.577a3.516 3.516 0 011.939-.578c.799 0 1.94.347 2.739 1.271l1.027 1.386c.342.462.684.808 1.255.924 1.026.231 2.053-.809 3.08-1.04 1.141-.346 2.168-.115 2.967.231 1.483.578 1.939 1.732 1.825 1.732zM232.678 176.026c-.114.116-.571-.924-2.054-1.501-.684-.231-1.711-.347-2.624-.116-.456.116-.913.462-1.483.693-.571.231-1.141.578-1.94.462-.684-.115-1.255-.693-1.597-1.155-.342-.462-.685-1.039-.913-1.386-.57-.808-1.483-1.154-2.282-1.154-1.597 0-2.282.808-2.396.808 0 0 .114-.231.457-.577a3.516 3.516 0 011.939-.578c.799 0 1.94.347 2.739 1.27l1.026 1.386c.343.462.685.809 1.255.924 1.027.231 2.054-.808 3.081-1.039 1.141-.347 2.168-.116 2.966.231 1.598.577 1.94 1.732 1.826 1.732zM260.174 176.373c0 .115-.798-.693-2.395-.693-.799 0-1.712.115-2.511.808-.342.347-.798.693-1.14 1.155-.457.462-.913.924-1.712 1.04-.799.115-1.369-.231-1.939-.578l-1.37-1.039c-.798-.578-1.825-.578-2.51-.347-1.483.462-1.939 1.617-1.939 1.502 0 0 0-.231.228-.693.228-.347.799-.924 1.597-1.271.799-.346 1.94-.346 2.967.231l1.369 1.04c.456.346.913.577 1.483.462 1.027-.116 1.711-1.386 2.624-2.079.913-.693 2.054-.809 2.853-.809 1.711.347 2.51 1.271 2.395 1.271zM251.161 189.077c0 .115-.799-.693-2.396-.693-.799 0-1.711.115-2.51.808-.342.347-.799.693-1.141 1.155-.456.462-.913.924-1.711 1.04-.799.115-1.369-.231-1.94-.578l-1.369-1.039c-.799-.578-1.826-.578-2.51-.347-1.483.462-1.94 1.617-1.94 1.502 0 0 0-.231.228-.693.229-.347.799-.924 1.598-1.271.798-.346 1.939-.346 2.966.231l1.369 1.04c.457.346.913.577 1.484.462 1.026-.116 1.711-1.386 2.624-2.079.912-.693 2.053-.809 2.852-.809 1.712.231 2.396 1.271 2.396 1.271z" fill="#FAFAFA" fill-opacity=".8"/><path d="M180.537 131.793c.684.809 25.785 34.763 25.785 34.763l-3.537 2.079L177 135.027l3.537-3.234z" fill="#263238"/><path d="M278.429 155.931s-23.503 41.115-25.1 41.808c-3.081 1.501-39.248-30.144-42.671-33.146-.457-.693-1.484-1.964-3.423-4.736 0 0-2.852-13.165-5.933-12.126-3.081 1.039 1.711 6.698-.342 11.665-1.94 4.966-11.067-6.93-11.41-7.969l-2.282-3.119s-2.396 7.045-2.281 9.933c.57 9.47 9.355 20.557 9.355 20.557s35.712 45.388 62.866 46.889c7.758.462 22.705-22.289 31.946-39.036 5.591-10.163 2.967-20.442-6.275-27.255l-4.45-3.465z" fill="#FFBE9D"/><path d="M189.436 160.089c-.114 0-1.027-1.386-2.053-3.35-.913-1.963-1.484-3.58-1.37-3.58.115 0 .799 1.617 1.712 3.465.913 1.848 1.825 3.349 1.711 3.465z" fill="#EB996E"/><path d="M278.289 144.497c-.913.578-22.819 41.692-22.819 41.692l28.181 22.29s7.302-18.247 11.181-33.146c1.027-4.042.457-14.783-1.027-18.94-7.305-15.393-5.248-4.389-10.04-7.854l-5.476-4.042z" fill="#5E81F4"/><path opacity=".7" d="M285.732 144.035c.57.347.798.462.798.462l-.456-.115c-.114 0-.342-.231-.571-.347a2.486 2.486 0 00-.413-.249c.241.085.454.173.642.249z" fill="#000"/><path d="M278.087 183.071c-.114.116-.57-.924-2.053-1.501-.685-.231-1.712-.347-2.625-.116-.456.116-.912.462-1.483.693-.57.231-1.141.578-1.939.462-.685-.115-1.255-.693-1.598-1.155-.342-.462-.684-1.039-.912-1.386-.571-.808-1.484-1.154-2.282-1.154-1.598 0-2.282.808-2.396.808 0 0 .114-.231.456-.577a3.517 3.517 0 011.94-.578c.798 0 1.939.347 2.738 1.27l1.027 1.386c.342.462.684.809 1.255.924 1.027.231 2.053-.808 3.08-1.039 1.141-.347 2.168-.116 2.967.231 1.597.577 1.939 1.732 1.825 1.732zM290.98 177.759c-.114 0-.342-1.04-1.597-1.964-.571-.462-1.484-.808-2.51-.808-.457 0-1.027.231-1.598.346-.57.116-1.255.231-1.939-.115-.685-.347-1.027-1.04-1.255-1.617-.229-.578-.343-1.155-.571-1.617-.342-.924-1.141-1.501-1.94-1.732-1.483-.462-2.51.231-2.51.115 0 0 .115-.231.571-.346.456-.231 1.141-.347 1.939-.116.799.231 1.826.809 2.282 1.964.229.577.343 1.039.571 1.616.228.578.456 1.04.913 1.271.912.462 2.167-.231 3.308-.231s2.168.462 2.739 1.039c1.597 1.04 1.711 2.195 1.597 2.195zM291.664 160.781c-.114 0-.342-1.039-1.597-1.963-.57-.462-1.483-.808-2.51-.808-.456 0-1.027.231-1.597.346-.571.116-1.255.231-1.94-.115-.684-.347-1.027-1.04-1.255-1.617-.228-.578-.342-1.155-.57-1.617-.343-.924-1.141-1.501-1.94-1.732-1.483-.462-2.51.231-2.51.115 0 0 .114-.231.57-.346.457-.231 1.141-.347 1.94-.116.799.231 1.826.808 2.282 1.963.228.578.342 1.04.57 1.617.229.578.457 1.04.913 1.271.913.462 2.168-.231 3.309-.231s2.168.462 2.738 1.039c1.597 1.04 1.712 2.194 1.597 2.194zM285.389 199.817c-.114 0-.342-1.039-1.597-1.963-.571-.462-1.483-.808-2.51-.808-.457 0-1.027.231-1.597.346-.571.116-1.255.231-1.94-.115-.685-.347-1.027-1.04-1.255-1.617-.228-.578-.342-1.155-.571-1.617-.342-.924-1.14-1.502-1.939-1.732-1.483-.462-2.51.23-2.51.115 0 0 .114-.231.57-.346.457-.231 1.141-.347 1.94-.116.799.231 1.825.808 2.282 1.963.228.578.342 1.04.57 1.617.228.578.457 1.04.913 1.271.913.462 2.168-.231 3.309-.231s2.167.462 2.738 1.039c1.711 1.04 1.711 2.31 1.597 2.194z" fill="#FAFAFA" fill-opacity=".8"/><path d="M31.727 40c3.989 0 6.354-2.467 6.354-6.558 0-4.078-2.365-6.533-6.264-6.533H27.29V40h4.436zm-2.064-2.052v-8.987h2.02c2.659 0 4.046 1.483 4.046 4.48 0 3.011-1.387 4.507-4.117 4.507h-1.95zm14.852 2.244c2.876 0 4.704-2.026 4.704-5.063 0-3.042-1.828-5.075-4.704-5.075-2.877 0-4.705 2.033-4.705 5.075 0 3.037 1.828 5.063 4.705 5.063zm.012-1.854c-1.591 0-2.371-1.419-2.371-3.215 0-1.796.78-3.234 2.371-3.234 1.566 0 2.346 1.438 2.346 3.234s-.78 3.215-2.346 3.215zM52.946 40h2.416l1.84-6.635h.135L59.177 40h2.41l2.781-9.818h-2.365l-1.7 6.865h-.096l-1.764-6.865H56.11l-1.764 6.903h-.09l-1.726-6.903h-2.358L52.946 40zm15.352-5.753c0-1.419.856-2.237 2.077-2.237 1.195 0 1.911.786 1.911 2.096V40H74.6v-6.251c.007-2.353-1.336-3.695-3.362-3.695-1.47 0-2.48.703-2.927 1.796h-.116v-1.668h-2.211V40h2.314v-5.753zm10.968-7.338h-2.313V40h2.313V26.91zm6.663 13.283c2.876 0 4.704-2.026 4.704-5.063 0-3.042-1.828-5.075-4.704-5.075-2.877 0-4.705 2.033-4.705 5.075 0 3.037 1.828 5.063 4.705 5.063zm.012-1.854c-1.591 0-2.371-1.419-2.371-3.215 0-1.796.78-3.234 2.371-3.234 1.566 0 2.346 1.438 2.346 3.234s-.78 3.215-2.346 3.215zm9.481 1.86c1.54 0 2.461-.722 2.883-1.547h.077V40h2.224v-6.571c0-2.595-2.115-3.375-3.988-3.375-2.065 0-3.65.92-4.161 2.71l2.16.307c.23-.671.882-1.246 2.013-1.246 1.074 0 1.662.55 1.662 1.515v.038c0 .665-.696.697-2.428.882-1.905.205-3.727.773-3.727 2.985 0 1.93 1.412 2.953 3.285 2.953zm.601-1.7c-.965 0-1.655-.441-1.655-1.291 0-.889.773-1.26 1.809-1.407.607-.083 1.821-.236 2.122-.479v1.157c0 1.093-.882 2.02-2.276 2.02zm10.554 1.675c1.687 0 2.448-1.004 2.812-1.72h.141V40h2.275V26.91h-2.32v4.895h-.096c-.352-.71-1.074-1.751-2.806-1.751-2.269 0-4.053 1.777-4.053 5.05 0 3.234 1.733 5.069 4.047 5.069zm.645-1.899c-1.528 0-2.333-1.342-2.333-3.183 0-1.828.793-3.139 2.333-3.139 1.489 0 2.308 1.234 2.308 3.139 0 1.905-.831 3.183-2.308 3.183zm23.314-4.82c0-4.231-2.583-6.724-6.015-6.724-3.439 0-6.015 2.493-6.015 6.725 0 4.225 2.576 6.724 6.015 6.724 3.432 0 6.015-2.493 6.015-6.724zm-2.385 0c0 2.98-1.495 4.596-3.63 4.596-2.129 0-3.631-1.617-3.631-4.595 0-2.98 1.502-4.596 3.631-4.596 2.135 0 3.63 1.617 3.63 4.596zm6.838.793c0-1.419.882-2.237 2.122-2.237 1.215 0 1.931.773 1.931 2.096V40h2.314v-6.251c0-2.372-1.343-3.695-3.382-3.695-1.508 0-2.467.684-2.921 1.796h-.115v-4.94h-2.263V40h2.314v-5.753zm11.551 5.951c1.54 0 2.461-.722 2.882-1.547h.077V40h2.225v-6.571c0-2.595-2.116-3.375-3.989-3.375-2.065 0-3.65.92-4.161 2.71l2.16.307c.23-.671.882-1.246 2.014-1.246 1.074 0 1.662.55 1.662 1.515v.038c0 .665-.697.697-2.429.882-1.905.205-3.727.773-3.727 2.985 0 1.93 1.413 2.953 3.286 2.953zm.6-1.7c-.965 0-1.655-.441-1.655-1.291 0-.889.773-1.26 1.809-1.407.607-.083 1.822-.236 2.122-.479v1.157c0 1.093-.882 2.02-2.276 2.02zM154.05 40h2.314v-5.772c0-1.247.94-2.129 2.212-2.129.39 0 .876.07 1.074.135v-2.129a5.572 5.572 0 00-.831-.064c-1.125 0-2.065.64-2.423 1.777h-.102v-1.636h-2.244V40zm9.769.198c1.54 0 2.461-.722 2.883-1.547h.076V40h2.225v-6.571c0-2.595-2.116-3.375-3.989-3.375-2.064 0-3.65.92-4.161 2.71l2.16.307c.231-.671.883-1.246 2.014-1.246 1.074 0 1.662.55 1.662 1.515v.038c0 .665-.697.697-2.429.882-1.905.205-3.727.773-3.727 2.985 0 1.93 1.413 2.953 3.286 2.953zm.601-1.7c-.965 0-1.656-.441-1.656-1.291 0-.889.774-1.26 1.809-1.407.607-.083 1.822-.236 2.122-.479v1.157c0 1.093-.882 2.02-2.275 2.02zM38.049 50.909H35.69v8.923h-.115l-6.162-8.923h-2.122V64h2.372v-8.917h.108L35.94 64h2.109V50.91zm6.764 13.283c2.877 0 4.705-2.026 4.705-5.063 0-3.042-1.828-5.075-4.705-5.075-2.876 0-4.704 2.033-4.704 5.075 0 3.037 1.828 5.063 4.704 5.063zm.013-1.854c-1.591 0-2.371-1.419-2.371-3.215 0-1.796.78-3.234 2.371-3.234 1.566 0 2.346 1.438 2.346 3.234s-.78 3.215-2.346 3.215zM53.245 64h2.416l1.84-6.635h.135L59.476 64h2.41l2.781-9.818h-2.365l-1.7 6.865h-.096l-1.764-6.865h-2.333l-1.765 6.903h-.09l-1.725-6.903H50.47L53.245 64zm15.87-13.09H66.64l.204 9.242h2.058l.211-9.243zm-1.24 13.23c.754 0 1.4-.626 1.406-1.406a1.42 1.42 0 00-1.407-1.393c-.78 0-1.412.626-1.406 1.393a1.398 1.398 0 001.406 1.407z" fill="#011F3B"/></g><defs><clipPath id="clip0"><path fill="#fff" d="M0 0h312v204H0z"/></clipPath></defs></svg>