<svg width="131" height="48" fill="none" xmlns="http://www.w3.org/2000/svg"><path d="M79.875 24c0-5.172-3.156-8.219-7.352-8.219-4.203 0-7.351 3.047-7.351 8.219 0 5.164 3.148 8.219 7.351 8.219 4.196 0 7.352-3.047 7.352-8.219zm-2.914 0c0 3.64-1.828 5.617-4.438 5.617-2.601 0-4.437-1.976-4.437-5.617 0-3.64 1.836-5.617 4.437-5.617 2.61 0 4.438 1.976 4.438 5.617zm8.357.969c0-1.735 1.079-2.735 2.594-2.735 1.484 0 2.36.946 2.36 2.563V32H93.1v-7.64c0-2.9-1.641-4.516-4.133-4.516-1.844 0-3.016.836-3.57 2.195h-.141V16H82.49v16h2.828v-7.031zm14.118 7.273c1.882 0 3.007-.883 3.523-1.89h.094V32h2.718v-8.031c0-3.172-2.585-4.125-4.875-4.125-2.523 0-4.46 1.125-5.085 3.312l2.64.375c.281-.82 1.078-1.523 2.461-1.523 1.313 0 2.031.672 2.031 1.851v.047c0 .813-.851.852-2.968 1.078-2.328.25-4.555.946-4.555 3.649 0 2.36 1.727 3.61 4.016 3.61zm.734-2.078c-1.18 0-2.023-.539-2.023-1.578 0-1.086.945-1.54 2.21-1.719.743-.101 2.227-.289 2.594-.586v1.414c0 1.336-1.078 2.47-2.781 2.47zM108.615 32h2.828v-7.055c0-1.523 1.149-2.601 2.703-2.601.477 0 1.071.086 1.313.164v-2.602a6.803 6.803 0 00-1.016-.078c-1.375 0-2.523.781-2.961 2.172h-.125v-2h-2.742v12zm11.94.242c1.883 0 3.008-.883 3.523-1.89h.094V32h2.719v-8.031c0-3.172-2.586-4.125-4.875-4.125-2.524 0-4.461 1.125-5.086 3.312l2.64.375c.282-.82 1.078-1.523 2.461-1.523 1.313 0 2.032.672 2.032 1.851v.047c0 .813-.852.852-2.969 1.078-2.328.25-4.555.946-4.555 3.649 0 2.36 1.727 3.61 4.016 3.61zm.734-2.078c-1.18 0-2.023-.539-2.023-1.578 0-1.086.945-1.54 2.211-1.719.742-.101 2.226-.289 2.593-.586v1.414c0 1.336-1.078 2.47-2.781 2.47z" fill="#5E81F4"/><rect width="48" height="48" rx="12" fill="#5E81F4"/><path d="M23.528 15.672c1.696 0 3.176.344 4.44 1.032 1.28.688 2.272 1.688 2.976 3C31.648 21 32 22.552 32 24.36c0 1.76-.36 3.32-1.08 4.68-.72 1.36-1.728 2.416-3.024 3.168-1.28.752-2.744 1.128-4.392 1.128-1.696 0-3.184-.344-4.464-1.032-1.264-.688-2.248-1.68-2.952-2.976-.704-1.312-1.056-2.872-1.056-4.68 0-1.76.36-3.32 1.08-4.68.72-1.36 1.72-2.416 3-3.168 1.296-.752 2.768-1.128 4.416-1.128zm-.096.432c-.88 0-1.656.36-2.328 1.08-.672.704-1.192 1.696-1.56 2.976-.352 1.28-.528 2.744-.528 4.392 0 1.664.2 3.128.6 4.392.416 1.264.968 2.24 1.656 2.928.704.688 1.48 1.032 2.328 1.032.88 0 1.656-.352 2.328-1.056.672-.72 1.184-1.72 1.536-3 .368-1.28.552-2.744.552-4.392 0-1.664-.208-3.128-.624-4.392-.4-1.264-.952-2.24-1.656-2.928-.688-.688-1.456-1.032-2.304-1.032z" fill="#fff"/></svg>