<svg width="22" height="28" fill="none" xmlns="http://www.w3.org/2000/svg"><path d="M20.927 21.783l-1.716-2.94a8.92 8.92 0 01-1.214-4.49V11.78c0-3.248-2.114-5.996-5.001-6.881V3.055C13 1.919 12.1 1 10.999 1c-1.102 0-2.002.92-2.002 2.055v1.843c-2.887.885-4.996 3.633-4.996 6.88v2.575a8.903 8.903 0 01-1.21 4.49l-1.72 2.935a.527.527 0 00-.005.52.5.5 0 00.436.26H20.5a.506.506 0 00.436-.26.518.518 0 00-.01-.515z" stroke="#768492" stroke-width="2" stroke-miterlimit="10"/><path d="M14.271 22.824a3.273 3.273 0 11-6.545 0" stroke="#768492" stroke-width="2"/></svg>