<svg width="18" height="21" fill="none" xmlns="http://www.w3.org/2000/svg"><g clip-path="url(#clip0)"><path d="M.39.312C.156.545 0 .935 0 1.402v17.221c0 .468.156.857.39 1.091l.078.078 9.584-9.662v-.156L.39.312z" fill="url(#paint0_linear)"/><path d="M13.325 13.325l-3.273-3.195v-.156l3.195-3.195.078.078 3.818 2.182c1.09.623 1.09 1.636 0 2.26l-3.818 2.026z" fill="url(#paint1_linear)"/><path d="M13.325 13.325l-3.273-3.273L.39 19.714c.39.39.935.39 1.636.078l11.299-6.467z" fill="url(#paint2_linear)"/><path d="M13.325 6.701L1.948.234C1.325-.156.701-.078.39.312l9.74 9.74 3.195-3.35z" fill="url(#paint3_linear)"/><path opacity=".2" d="M13.325 13.247l-11.377 6.39c-.623.389-1.169.311-1.558 0l-.078.077.078.078c.39.312.935.39 1.558 0l11.377-6.545z" fill="#000"/><path opacity=".12" d="M.39 19.636c-.234-.233-.39-.623-.39-1.09v.077c0 .468.156.857.39 1.091v-.078zM17.143 11.065l-3.896 2.182.078.078 3.818-2.182c.545-.312.78-.701.78-1.091 0 .312-.235.701-.78 1.013z" fill="#000"/><path opacity=".25" d="M1.948.39l15.195 8.649c.467.312.78.623.78 1.013 0-.39-.235-.78-.78-1.09L1.948.233C.858-.39 0 .156 0 1.403v.078C0 .234.857-.234 1.948.39z" fill="#fff"/></g><defs><linearGradient id="paint0_linear" x1="9.216" y1="1.223" x2="-3.861" y2="14.3" gradientUnits="userSpaceOnUse"><stop stop-color="#00A0FF"/><stop offset=".007" stop-color="#00A1FF"/><stop offset=".26" stop-color="#00BEFF"/><stop offset=".512" stop-color="#00D2FF"/><stop offset=".76" stop-color="#00DFFF"/><stop offset="1" stop-color="#00E3FF"/></linearGradient><linearGradient id="paint1_linear" x1="18.594" y1="10.021" x2="-.261" y2="10.021" gradientUnits="userSpaceOnUse"><stop stop-color="#FFE000"/><stop offset=".409" stop-color="#FFBD00"/><stop offset=".775" stop-color="orange"/><stop offset="1" stop-color="#FF9C00"/></linearGradient><linearGradient id="paint2_linear" x1="11.575" y1="11.81" x2="-6.159" y2="29.543" gradientUnits="userSpaceOnUse"><stop stop-color="#FF3A44"/><stop offset="1" stop-color="#C31162"/></linearGradient><linearGradient id="paint3_linear" x1="-2.085" y1="-5.427" x2="5.834" y2="2.492" gradientUnits="userSpaceOnUse"><stop stop-color="#32A071"/><stop offset=".069" stop-color="#2DA771"/><stop offset=".476" stop-color="#15CF74"/><stop offset=".801" stop-color="#06E775"/><stop offset="1" stop-color="#00F076"/></linearGradient><clipPath id="clip0"><path fill="#fff" d="M0 0h18v20.026H0z"/></clipPath></defs></svg>