<svg width="24" height="24" fill="none" xmlns="http://www.w3.org/2000/svg"><path d="M22.5 10.553l-1.797-.38a.628.628 0 01-.464-.439 8.873 8.873 0 00-.818-1.991.597.597 0 01.024-.635l1.002-1.54a.612.612 0 00-.085-.769l-1.185-1.185a.628.628 0 00-.77-.085l-1.54 1.013a.624.624 0 01-.634.025 8.336 8.336 0 00-1.992-.819.628.628 0 01-.44-.464l-.366-1.795A.625.625 0 0012.837 1H11.15a.625.625 0 00-.598.489l-.38 1.795a.613.613 0 01-.427.464 8.338 8.338 0 00-1.99.819.597.597 0 01-.636-.025L5.58 3.541a.612.612 0 00-.769.085L3.626 4.811a.612.612 0 00-.085.77L4.542 7.12c.123.195.135.44.025.635a8.338 8.338 0 00-.819 1.991.613.613 0 01-.464.428l-1.795.379A.614.614 0 001 11.15v1.686c0 .293.208.537.489.598l1.795.379c.22.049.403.22.464.44.196.696.465 1.368.819 1.99.11.196.11.44-.025.636l-1.001 1.54a.612.612 0 00.085.769l1.185 1.185a.628.628 0 00.77.085l1.539-1.002a.624.624 0 01.635-.024 8.339 8.339 0 001.991.819c.22.06.391.244.44.464l.379 1.795a.603.603 0 00.586.477h1.686a.614.614 0 00.598-.489l.379-1.796a.628.628 0 01.44-.464 8.874 8.874 0 001.99-.818c.196-.11.44-.11.636.024l1.54 1.002a.612.612 0 00.769-.085l1.185-1.185a.628.628 0 00.085-.77l-1.002-1.54a.625.625 0 01-.024-.634 8.337 8.337 0 00.819-1.992.628.628 0 01.464-.44l1.795-.378a.615.615 0 00.489-.598V11.15a.638.638 0 00-.5-.598zm-10.506 5.105a3.66 3.66 0 01-3.665-3.664 3.66 3.66 0 013.665-3.665 3.66 3.66 0 013.665 3.665 3.66 3.66 0 01-3.665 3.665z" stroke="#C7CADD" stroke-width="2"/></svg>